<?xml version="1.0" encoding="UTF-8"?>
<svg xmlns="http://www.w3.org/2000/svg" viewBox="0 0 240 240" width="240" height="240">
<path d="M53.5 36.07C65.59 35.19 78.04 35.99 90.17 35.99C114.06 35.99 137.94 35.99 161.83 35.99C173.9 35.99 192.24 32.49 199.81 44.51C205.75 53.92 204.01 63.2 204.01 74.17C204.01 92.5 204.01 110.83 204.01 129.17C204.01 143.61 204.01 158.06 204.01 172.5C204.01 182.85 205.01 191.43 196.7 198.86C187.66 206.95 172.55 204.01 161.17 204.01C132.83 204.01 104.5 204.01 76.17 204.01C63.97 204.01 49.99 206.6 41.14 196.7C34.87 189.7 35.99 180.73 35.99 171.83C35.99 155.28 35.99 138.72 35.99 122.17C35.99 106.28 35.99 90.39 35.99 74.5C35.99 69.29 34.78 57.57 36.1 53.1C38.3 45.69 44.98 36.69 53.5 36.07ZM56.25 41.14C43.24 43.05 40.98 54 40.98 65.17C40.98 85.5 40.98 105.83 40.98 126.17C40.98 141.06 40.98 155.94 40.98 170.83C40.98 178.4 40.04 186.6 45.19 192.64C53.04 201.84 67.86 198.99 78.83 198.99C105.72 198.99 132.61 198.99 159.5 198.99C169.88 198.99 184.19 201.67 192.64 194.8C201.7 187.43 198.99 172.99 198.99 162.5C198.99 134.28 198.99 106.06 198.99 77.83C198.99 67.32 202.06 50.72 191.45 44.33C182.04 38.66 163.54 40.98 152.17 40.98C130.83 40.98 109.5 40.98 88.17 40.98C78.08 40.98 66.12 39.69 56.25 41.14ZM67.62 45.98C72.86 45.98 78.09 45.98 83.33 45.98C83.33 71.58 83.33 97.19 83.33 122.8C78.09 123.7 72.86 124.6 67.62 125.5C67.62 98.99 67.62 72.48 67.62 45.98ZM88.57 45.98C94.06 45.98 99.55 45.98 105.03 45.98C105.03 70.15 105.03 94.33 105.03 118.5C99.55 119.65 94.06 120.79 88.57 121.94C88.57 96.62 88.57 71.3 88.57 45.98ZM110.17 46.21C114.36 44.74 127.37 45.97 132.5 45.97C143.83 45.97 155.17 45.97 166.5 45.97C171.8 45.97 177.95 45.09 183.16 46.03C189.41 47.15 196.95 56.32 193.75 62.36C167 62.36 140.25 62.36 113.5 62.36C112.26 59.52 109.65 49.14 110.17 46.21ZM62.36 46.22C62.36 73.09 62.36 99.96 62.36 126.83C56.98 127.83 51.59 128.83 46.21 129.83C44.71 125.54 45.97 112.1 45.97 106.83C45.97 94.94 45.97 83.06 45.97 71.17C45.97 65.53 44.95 58.68 47.07 53.51C48.34 50.4 51.4 49.52 53.17 47.17C56.07 46.78 59.83 44.98 62.36 46.22ZM194.02 67.62C194.02 72.86 194.02 78.1 194.02 83.33C168.51 83.33 143.01 83.33 117.5 83.33C116.18 80.2 113.8 70.54 114.5 67.62C141.01 67.62 167.51 67.62 194.02 67.62ZM194.02 88.57C194.02 94.06 194.02 99.55 194.02 105.03C169.84 105.03 145.67 105.03 121.5 105.03C120.34 99.55 119.18 94.06 118.03 88.57C143.36 88.57 168.69 88.57 194.02 88.57ZM193.79 110.17C195.23 114.31 194.03 127.11 194.03 132.17C194.03 143.61 194.03 155.06 194.03 166.5C194.03 171.76 194.96 178 193.96 183.16C192.74 189.49 183.91 196.77 177.62 193.77C177.62 166.9 177.62 140.03 177.62 113.17C183.01 112.17 188.4 111.17 193.79 110.17ZM172.37 113.99C172.37 140.66 172.37 167.34 172.37 194.02C167.14 194.02 161.9 194.02 156.66 194.02C156.66 168.41 156.66 142.81 156.66 117.2C161.9 116.13 167.14 115.06 172.37 113.99ZM151.41 118.04C151.41 143.36 151.41 168.69 151.41 194.02C145.93 194.02 140.45 194.02 134.97 194.02C134.97 169.73 134.97 145.45 134.97 121.17C140.45 120.12 145.93 119.08 151.41 118.04ZM118.5 134.97C119.65 140.45 120.79 145.93 121.94 151.41C96.62 151.41 71.3 151.41 45.98 151.41C45.98 145.93 45.98 140.45 45.98 134.97C70.15 134.97 94.33 134.97 118.5 134.97ZM122.5 156.67C123.85 159.89 126.14 169.3 125.5 172.38C98.99 172.38 72.48 172.38 45.98 172.38C45.98 167.14 45.98 161.9 45.98 156.67C71.48 156.67 96.99 156.67 122.5 156.67ZM126.83 177.62C127.83 183.01 128.83 188.4 129.83 193.79C125.53 195.29 112.1 194.03 106.83 194.03C94.94 194.03 83.06 194.03 71.17 194.03C65.53 194.03 58.66 195.07 53.51 192.86C50.42 191.54 49.57 188.6 47.17 186.82C46.77 183.9 44.99 180.24 46.22 177.62C73.09 177.62 99.96 177.62 126.83 177.62Z" fill="#da291c" fill-rule="evenodd" stroke="#da291c" stroke-width="0.25" stroke-linejoin="round"/>
</svg>