<svg version="1.1" id="svg2" xmlns="http://www.w3.org/2000/svg" xmlns:xlink="http://www.w3.org/1999/xlink" x="0px" y="0px" viewBox="0 0 65 65" style="enable-background:new 0 0 65 65;" xml:space="preserve">
 <style type="text/css">
  .st0{fill:#FFFFFF;}
	.st1{fill:#DA291C;}
 </style>
 <metadata id="metadata8">
  
   
    
     image/svg+xml
    
    
    
   
  
  
   
   
   
   
  
 </metadata>
 <g id="g10" transform="matrix(1.3333333,0,0,-1.3333333,0,320)">
  <g id="g12" transform="scale(0.1)">
   <path id="path14" class="st0" d="M464.5,2328.9v-4.1l-244.4,4.1l-9.5,48.1h206.5c6.1,0,11.5-0.7,11.5-0.7&#xA;&#x9;&#x9;&#x9;c19-0.7,33.9-14.2,35.9-35.9C464.5,2340.4,464.5,2334.3,464.5,2328.9L464.5,2328.9z M464.5,2262.6l-232.9,4.7l-8.1,40.6l241,2.7&#xA;&#x9;&#x9;&#x9;V2262.6z M464.5,2201.6H245.1l-8.8,44l228.9,4.1v-48.1H464.5z M464.5,1982.9c0-6.1-0.7-11.5-0.7-11.5c-0.7-19-14.2-33.9-35.9-35.9&#xA;&#x9;&#x9;&#x9;c0,0-6.1-0.7-11.5-0.7h-4.1l4.1,244.4l48.1,9.5V1982.9z M350.7,1935.5l4.1,232.9l40.6,8.1l3.4-240.4h-48.1V1935.5z M289.8,1935.5&#xA;&#x9;&#x9;&#x9;v219.4l44,8.8l4.1-228.9h-48.1V1935.5z M71.1,1935.5c-6.1,0-11.5,0.7-11.5,0.7c-19,0.7-33.9,14.2-35.9,35.9c0,0-0.7,6.1-0.7,11.5&#xA;&#x9;&#x9;&#x9;v4.1l244.4-4.1l9.5-48.1H71.1z M23,2049.3l232.9-4.1l8.1-40.6l-241-3.4L23,2049.3z M23,2110.2h220.1l8.8-44L23,2062.1L23,2110.2z&#xA;&#x9;&#x9;&#x9; M23,2328.9c0,6.1,0.7,11.5,0.7,11.5c0.7,19,14.2,33.9,35.9,35.9c0,0,6.1,0.7,11.5,0.7h4.1l-4.1-244.4l-48.1-9.5L23,2328.9z&#xA;&#x9;&#x9;&#x9; M137.4,2377l-4.1-232.9l-40.6-8.1l-3.4,241H137.4z M198.4,2377v-220.1l-44-8.8l-4.7,228.9H198.4z M432,2388.5&#xA;&#x9;&#x9;&#x9;c0,0-8.1,0.7-15.6,0.7H71.1c-7.4,0-14.9-0.7-14.9-0.7c-25.7-2-44-20.3-44.7-44c0,0-0.7-8.1-0.7-15.6v-345.3&#xA;&#x9;&#x9;&#x9;c0-7.4,0.7-14.9,0.7-15.6c2-25.7,19.6-43.3,44-44.7c0,0,8.1-0.7,15.6-0.7h345.3c7.4,0,14.9,0.7,14.9,0.7c25.7,2,44,19.6,44.7,44&#xA;&#x9;&#x9;&#x9;c0,0,0.7,8.1,0.7,15.6v345.3c0,7.4-0.7,14.9-0.7,15.6C474,2369.5,456.4,2387.8,432,2388.5">
   </path>
   <path id="path16" class="st1" d="M245.1,2201.6h220.1v48.8l-228.9-4.1L245.1,2201.6z M231.6,2267.3l232.9-4.1v47.4l-240.4-3.4&#xA;&#x9;&#x9;&#x9;L231.6,2267.3z M464.5,2324.8v4.1c0,5.4-0.7,11.5-0.7,11.5c-2,21.7-16.9,35.2-35.9,35.9c0,0-5.4,0.7-11.5,0.7H210.6l9.5-48.1&#xA;&#x9;&#x9;&#x9;L464.5,2324.8z M198.4,2156.9V2377h-48.8l4.7-228.9L198.4,2156.9z M132.7,2144.1l4.1,232.9H89.4l3.4-240.4L132.7,2144.1z&#xA;&#x9;&#x9;&#x9; M75.2,2377h-4.1c-5.4,0-11.5-0.7-11.5-0.7c-21.7-2-35.2-16.9-35.9-35.9c0,0-0.7-5.4-0.7-11.5v-206.5l48.1,9.5L75.2,2377z&#xA;&#x9;&#x9;&#x9; M243.1,2110.2H23v-48.8l228.9,4.7L243.1,2110.2z M255.9,2045.2L23,2049.3v-48.1l240.4,3.4L255.9,2045.2z M23,1987v-4.1&#xA;&#x9;&#x9;&#x9;c0-5.4,0.7-11.5,0.7-11.5c2-21.7,16.9-35.2,35.9-35.9c0,0,5.4-0.7,11.5-0.7h206.5l-9.5,48.1L23,1987z M289.8,2154.9v-220.1h48.8&#xA;&#x9;&#x9;&#x9;l-4.1,228.9L289.8,2154.9z M354.8,2168.4l-4.1-232.9h48.1l-3.4,240.4L354.8,2168.4z M416.4,2179.9l48.1,9.5v-206.5&#xA;&#x9;&#x9;&#x9;c0-6.1-0.7-11.5-0.7-11.5c-0.7-19-14.2-33.9-35.9-35.9c0,0-6.1-0.7-11.5-0.7h-4.1L416.4,2179.9z M477.3,1983.6&#xA;&#x9;&#x9;&#x9;c0-7.4-0.7-14.9-0.7-15.6c-0.7-24.4-19-42-44.7-44c0,0-7.4-0.7-14.9-0.7H71.8c-7.4,0-14.9,0.7-15.6,0.7c-24.4,0.7-42,19-44,44.7&#xA;&#x9;&#x9;&#x9;c0,0-0.7,7.4-0.7,15.6v345.3c0,7.4,0.7,14.9,0.7,15.6c0.7,24.4,19,42,44.7,44c0,0,7.4,0.7,14.9,0.7h345.3c7.4,0,14.9-0.7,15.6-0.7&#xA;&#x9;&#x9;&#x9;c24.4-0.7,42-19,44-44.7c0,0,0.7-7.4,0.7-15.6V1983.6z M486.8,2345.2c-2.7,31.1-25.1,53.5-54.2,54.2c-0.7,0-8.1,0.7-16.3,0.7H71.1&#xA;&#x9;&#x9;&#x9;c-8.1,0-15.6-0.7-16.2-0.7c-31.1-2.7-53.5-25.1-54.2-54.2c0,0-0.7-8.1-0.7-16.2v-345.3c0-8.1,0.7-15.6,0.7-16.2&#xA;&#x9;&#x9;&#x9;c2.7-31.1,25.1-53.5,54.2-54.2c0,0,8.1-0.7,16.2-0.7h345.3c8.1,0,15.6,0.7,16.3,0.7c31.1,2.7,53.5,25.1,54.2,54.2&#xA;&#x9;&#x9;&#x9;c0,0.7,0.7,8.1,0.7,16.2v345.3C487.5,2337,486.8,2344.5,486.8,2345.2">
   </path>
  </g>
 </g>
</svg>
